<?xml version="1.0" encoding="UTF-8" standalone="no"?>
<!-- Created with Inkscape (http://www.inkscape.org/) -->

<svg
   version="1.1"
   id="svg2"
   width="135.8493"
   height="135.84933"
   viewBox="0 0 135.8493 135.84933"
   sodipodi:docname="ff_white.svg"
   xmlns:inkscape="http://www.inkscape.org/namespaces/inkscape"
   xmlns:sodipodi="http://sodipodi.sourceforge.net/DTD/sodipodi-0.dtd"
   xmlns="http://www.w3.org/2000/svg"
   xmlns:svg="http://www.w3.org/2000/svg">
  <defs
     id="defs6">
    <clipPath
       clipPathUnits="userSpaceOnUse"
       id="clipPath20">
      <path
         d="M 0,612 H 792 V 0 H 0 Z"
         id="path18" />
    </clipPath>
  </defs>
  <sodipodi:namedview
     id="namedview4"
     pagecolor="#ffffff"
     bordercolor="#000000"
     borderopacity="0.25"
     inkscape:showpageshadow="2"
     inkscape:pageopacity="0.0"
     inkscape:pagecheckerboard="0"
     inkscape:deskcolor="#d1d1d1">
    <inkscape:page
       x="0"
       y="0"
       width="135.8493"
       height="135.84933"
       id="page2"
       margin="0"
       bleed="0" />
  </sodipodi:namedview>
  <g
     id="g8"
     inkscape:groupmode="layer"
     inkscape:label="ForeFlight_A_Boeing_Company_stacked_white"
     transform="matrix(1.3333333,0,0,-1.3333333,-460.89094,514.93825)">
    <g
       id="g14">
      <g
         id="g16"
         clip-path="url(#clipPath20)">
        <g
           id="g112"
           transform="translate(421.7432,335.2617)">
          <path
             d="m 0,0 c 0,13.878 -11.251,25.13 -25.131,25.13 -13.88,0 -25.133,-11.252 -25.133,-25.13 0,-13.881 11.253,-25.133 25.133,-25.133 C -11.251,-25.133 0,-13.881 0,0 m 18.988,-25.472 -26.109,7.462 7.463,-26.106 -18.882,19.512 -6.591,-26.341 -6.592,26.341 -18.879,-19.512 7.457,26.106 -26.103,-7.462 19.513,18.882 -26.34,6.59 26.34,6.593 -19.513,18.881 26.103,-7.464 -7.457,26.108 18.879,-19.514 6.592,26.338 L -18.54,24.604 0.342,44.118 -7.121,18.01 18.988,25.474 -0.526,6.593 25.812,0 -0.526,-6.59 Z m -44.122,44.993 h 0.006 0.003 z m 3.287,-22 -0.458,-8.521 5.486,-4.587 -0.732,-1.921 -5.116,1.467 -0.734,-3.3 c 0,0 -0.894,-0.164 -1.764,-0.203 -0.644,-0.024 -1.699,0.203 -1.699,0.203 l -0.732,3.3 -5.122,-1.467 -0.725,1.921 5.484,4.587 -0.456,8.521 -15.906,-2.106 -1.374,2.661 17.187,7.333 c 0,0 0.029,5.485 0.135,7.522 0.087,1.694 0.502,6.587 3.245,6.59 2.729,-0.003 3.126,-4.937 3.215,-6.637 0.107,-2.034 0.162,-7.475 0.162,-7.475 l 17.184,-7.333 -1.375,-2.661 z"
             style="fill:#ffffff;fill-opacity:1;fill-rule:nonzero;stroke:none"
             id="path114" />
        </g>
      </g>
    </g>
  </g>
</svg>
